<svg xmlns="http://www.w3.org/2000/svg" xmlns:xlink="http://www.w3.org/1999/xlink" width="23.813" height="23.812" x="0" y="0" enable-background="new 0 0 23.813 23.812" version="1.1" viewBox="0 0 23.813 23.812" xml:space="preserve"><g id="Layer_3"><path fill="#FFF" d="M12.826,11.906L23.623,1.109c0.254-0.254,0.254-0.665,0-0.919s-0.666-0.254-0.92,0L11.907,10.987L1.11,0.19 c-0.254-0.254-0.666-0.254-0.92,0s-0.254,0.665,0,0.919l10.797,10.797L0.19,22.703c-0.254,0.254-0.254,0.665,0,0.919 c0.127,0.127,0.294,0.19,0.46,0.19s0.333-0.063,0.46-0.19l10.796-10.796l10.796,10.796c0.127,0.127,0.294,0.19,0.46,0.19 s0.333-0.063,0.46-0.19c0.254-0.254,0.254-0.665,0-0.919L12.826,11.906z"/></g></svg>